<svg id="continuous_deploy_svg__Layer_1" xmlns="http://www.w3.org/2000/svg" viewBox="0 0 60.2 60.2">
    <style>.continuous_deploy_svg__st1{fill:#fff;stroke:none}</style>
    <circle cx="30.1" cy="30.1" r="30.1" fill="#f37738" stroke="none" id="continuous_deploy_svg__Layer_2"/>
    <path transform="rotate(-52.239 16.184 41.877)" class="continuous_deploy_svg__st1" d="M14.2 41.4h4v.9h-4z"/>
    <path transform="rotate(-45.114 17.15 44.433)" class="continuous_deploy_svg__st1" d="M14.5 44h5.2v.9h-5.2z"/>
    <path transform="rotate(-37.674 19.73 45.36)" class="continuous_deploy_svg__st1" d="M17.7 44.9h4.1v.9h-4.1z"/>
    <path class="continuous_deploy_svg__st1" d="M46.4 15.3s-7.3-6.2-18.8 10.4l-1.3 1.8c-6.6-.3-10.4 6.5-10.4 6.5l5.1 
         1.4-1.2 1.7v.1s-.4.6 1.6 2.9l.1.1c.1.1.2.1.3.2 1.9 1.6 2.6 1.6 2.8 1.6l.2-.1 1.8-1.2L28 46s6.8-3.8 
         6.4-10.4v-.3l1.7-1.2c16.5-11.5 10.3-18.8 10.3-18.8zM37 28.1c-1.8 0-3.2-1.4-3.3-3.2 0-1.8 1.4-3.2 
         3.2-3.3 1.8 0 3.2 1.4 3.3 3.2 0 1.8-1.4 3.3-3.2 3.3z"/>
</svg>
